# File created by Blade
# Date/Time:  Fri Jan 16 17:45:47 2015
#---------------------------------------------------------
:version 1.10
:name HOM
:units
  mass 1.0
  length 1.000000
  angle deg
:documentation
     Acclaim Skeleton File
:root
   axis xyz
   order TX TY TZ RX RY RZ
   position 0.000000 0.000000 0.000000
   orientation 0 0 0
:bonedata
   begin
      id 1
      name Spine_dum
      direction 0.000000 1.000000 0.000000
      length 7.170412
      axis 0.0 0.0 0.0 xyz
   end
   begin
      id 2
      name LeftUpLeg_dum
      direction 1.000000 0.000000 0.000000
      length 4.318350
      axis 0.0 0.0 0.0 xyz
   end
   begin
      id 3
      name RightUpLeg_dum
      direction -1.000000 0.000000 0.000000
      length 4.318350
      axis 0.0 0.0 0.0 xyz
   end
   begin
      id 4
      name Spine
      direction 0.000000 1.000000 0.000000
      length 0.000000
      axis 0.0 0.0 0.0 xyz
      dof rx ry rz
   end
   begin
      id 5
      name Spine_dum1
      direction 0.000000 1.000000 0.000000
      length 14.276153
      axis 0.0 0.0 0.0 xyz
   end
   begin
      id 6
      name Spine_dum2
      direction 0.000000 1.000000 0.000000
      length 10.718243
      axis 0.0 0.0 0.0 xyz
   end
   begin
      id 7
      name Spine_dum3
      direction 0.000000 1.000000 0.000000
      length 10.718243
      axis 0.0 0.0 0.0 xyz
   end
   begin
      id 8
      name Head
      direction 0.000000 1.000000 0.000000
      length 4.527550
      axis 0.0 0.0 0.0 xyz
      dof rx ry rz
   end
   begin
      id 9
      name LeftShoulder
      direction 1.000000 0.000000 0.000000
      length 7.058872
      axis 0.0 0.0 -90.0 xyz
      dof rx ry rz
   end
   begin
      id 10
      name LeftArm
      direction 1.000000 0.000000 0.000000
      length 10.955525
      axis 0.0 0.0 -90.0 xyz
      dof rx ry rz
   end
   begin
      id 11
      name LeftForeArm
      direction 1.000000 0.000000 0.000000
      length 8.193716
      axis 0.0 0.0 -90.0 xyz
      dof ry rz rx
   end
   begin
      id 12
      name LeftHand
      direction 0.000000 0.000000 0.000000
      length 0.000000
      axis 0.0 0.0 -90.0 xyz
      dof rx ry rz
   end
   begin
      id 13
      name LeftHand_dum1
      direction 0.000000 0.000000 0.000000
      length 0.000000
      axis 0.0 0.0 -90.0 xyz
   end
   begin
      id 14
      name LeftHand_dum2
      direction 1.000000 0.000000 0.000000
      length 3.937000
      axis 0.0 0.0 -90.0 xyz
   end
   begin
      id 15
      name LeftHandThumb1
      direction 0.000000 0.000000 1.000000
      length 3.937000
      axis 0.0 0.0 -90.0 xyz
      dof rx rz ry
   end
   begin
      id 16
      name RightShoulder
      direction -1.000000 0.000000 0.000000
      length 7.058872
      axis 0.0 0.0 90.0 xyz
      dof rx ry rz
   end
   begin
      id 17
      name RightArm
      direction -1.000000 0.000000 0.000000
      length 10.955525
      axis 0.0 0.0 90.0 xyz
      dof rx ry rz
   end
   begin
      id 18
      name RightForeArm
      direction -1.000000 0.000000 0.000000
      length 8.193716
      axis 0.0 0.0 90.0 xyz
      dof ry rz rx
   end
   begin
      id 19
      name RightHand
      direction 0.000000 0.000000 0.000000
      length 0.000000
      axis 0.0 0.0 90.0 xyz
      dof rx ry rz
   end
   begin
      id 20
      name RightHand_dum1
      direction 0.000000 0.000000 0.000000
      length 0.000000
      axis 0.0 0.0 90.0 xyz
   end
   begin
      id 21
      name RightHand_dum2
      direction -1.000000 0.000000 0.000000
      length 3.937000
      axis 0.0 0.0 90.0 xyz
   end
   begin
      id 22
      name RightHandThumb1
      direction 0.000000 0.000000 1.000000
      length 3.937000
      axis 0.0 0.0 90.0 xyz
      dof rx rz ry
   end
   begin
      id 23
      name LeftUpLeg
      direction 0.000000 -1.000000 0.000000
      length 17.323638
      axis 0.0 0.0 0.0 xyz
      dof rx ry rz
   end
   begin
      id 24
      name LeftLeg
      direction 0.000000 -1.000000 0.000000
      length 16.270368
      axis 0.0 0.0 0.0 xyz
      dof rx ry rz
   end
   begin
      id 25
      name LeftFoot
      direction 0.000000 -0.258819 0.965926
      length 4.922846
      axis 15.0 0.0 0.0 xyz
      dof rx ry rz
   end
   begin
      id 26
      name LeftToeBase
      direction 0.000000 0.000000 1.000000
      length 2.952750
      axis 0.0 0.0 0.0 xyz
      dof rx ry rz
   end
   begin
      id 27
      name RightUpLeg
      direction 0.000000 -1.000000 0.000000
      length 17.323638
      axis 0.0 0.0 0.0 xyz
      dof rx ry rz
   end
   begin
      id 28
      name RightLeg
      direction 0.000000 -1.000000 0.000000
      length 16.270368
      axis 0.0 0.0 0.0 xyz
      dof rx ry rz
   end
   begin
      id 29
      name RightFoot
      direction 0.000000 -0.258819 0.965926
      length 4.922846
      axis 15.0 0.0 0.0 xyz
      dof rx ry rz
   end
   begin
      id 30
      name RightToeBase
      direction 0.000000 0.000000 1.000000
      length 2.952750
      axis 0.0 0.0 0.0 xyz
      dof rx ry rz
   end
:hierarchy
   begin
      root Spine_dum LeftUpLeg_dum RightUpLeg_dum
      Spine_dum Spine
      LeftUpLeg_dum LeftUpLeg
      RightUpLeg_dum RightUpLeg
      Spine Spine_dum1 Spine_dum2 Spine_dum3
      Spine_dum1 Head
      Spine_dum2 LeftShoulder
      Spine_dum3 RightShoulder
      LeftShoulder LeftArm
      LeftArm LeftForeArm
      LeftForeArm LeftHand
      LeftHand LeftHand_dum1 LeftHand_dum2
      LeftHand_dum1 LeftHandThumb1
      RightShoulder RightArm
      RightArm RightForeArm
      RightForeArm RightHand
      RightHand RightHand_dum1 RightHand_dum2
      RightHand_dum1 RightHandThumb1
      LeftUpLeg LeftLeg
      LeftLeg LeftFoot
      LeftFoot LeftToeBase
      RightUpLeg RightLeg
      RightLeg RightFoot
      RightFoot RightToeBase
   end

# File created by Blade
# Date/Time:  Fri Jan 16 17:45:28 2015
# Frame Rate: 120.000 fps
#------------------------------------------------------
:FULLY-SPECIFIED
:DEGREES
1945
root -5.273743 35.253552 -10.249995 -3.462958 -7.368914 -5.980357
Spine 0.598472 -0.632966 9.445823
Head 6.073489 2.097159 -8.548355
LeftShoulder -19.019514 15.025370 -17.792782
LeftArm 20.552040 1.698552 -72.464312
LeftForeArm 4.338670 -0.000000 12.020294
LeftHand 1.957848 -0.000000 -6.425823
LeftHandThumb1 -26.253704 0.000000 33.147579
RightShoulder -0.083487 3.787334 4.127411
RightArm -5.415166 55.206752 66.861626
RightForeArm 14.043203 -0.000000 87.840797
RightHand 16.807992 -0.000000 -15.387779
RightHandThumb1 -24.326973 -0.000000 -32.862282
LeftUpLeg 13.353748 16.125774 7.674142
LeftLeg -8.717439 -0.000000 0.000000
LeftFoot -15.659289 27.589308 -8.101195
LeftToeBase 22.949488 -0.000000 -0.000000
RightUpLeg 9.257585 -3.740047 3.895091
RightLeg -4.274456 -0.000000 0.000000
RightFoot -3.656680 -26.544771 3.348959
RightToeBase 13.726072 -0.000000 -0.000000
1946
root -5.273615 35.253448 -10.250366 -3.462599 -7.375232 -5.975967
Spine 0.600972 -0.628977 9.441243
Head 6.050014 2.084247 -8.604689
LeftShoulder -19.037147 15.008874 -17.822980
LeftArm 20.571688 1.683172 -72.434974
LeftForeArm 4.356956 -0.000000 12.026421
LeftHand 1.940539 -0.000000 -6.418705
LeftHandThumb1 -26.253704 0.000000 33.147579
RightShoulder -0.023135 3.831827 4.111743
RightArm -5.663704 54.920135 66.665948
RightForeArm 14.474372 -0.000000 85.497136
RightHand 16.760251 -0.000000 -15.570835
RightHandThumb1 -24.326973 -0.000000 -32.862282
LeftUpLeg 13.347460 16.092437 7.660768
LeftLeg -8.706604 -0.000000 0.000000
LeftFoot -15.658384 27.629392 -8.096704
LeftToeBase 22.919058 -0.000000 -0.000000
RightUpLeg 9.252406 -3.807470 3.883234
RightLeg -4.270142 -0.000000 0.000000
RightFoot -3.656266 -26.490622 3.332730
RightToeBase 13.714326 -0.000000 -0.000000
1947
root -5.276989 35.253247 -10.252051 -3.456199 -7.383923 -5.977792
Spine 0.597439 -0.601140 9.433315
Head 6.036622 2.067106 -8.658765
LeftShoulder -19.030114 15.011540 -17.836531
LeftArm 20.604584 1.700557 -72.388589
LeftForeArm 4.317986 -0.000000 12.023417
LeftHand 1.948072 0.000000 -6.468137
LeftHandThumb1 -26.253704 0.000000 33.147579
RightShoulder 0.004566 3.819727 4.166428
RightArm -5.658019 54.781079 66.673218
RightForeArm 14.864559 -0.000000 83.170017
RightHand 16.963067 -0.000000 -15.577910
RightHandThumb1 -24.326973 -0.000000 -32.862282
LeftUpLeg 13.337189 16.102563 7.668016
LeftLeg -8.699337 -0.000000 0.000000
LeftFoot -15.664194 27.633231 -8.097299
LeftToeBase 22.947791 -0.000000 -0.000000
RightUpLeg 9.272452 -3.691203 3.897757
RightLeg -4.322507 -0.000000 0.000000
RightFoot -3.647270 -26.546529 3.400396
RightToeBase 13.677888 -0.000000 -0.000000
1948
root -5.284120 35.253607 -10.256121 -3.453577 -7.417256 -5.987850
Spine 0.610903 -0.557447 9.424316
Head 6.009349 2.069008 -8.699009
LeftShoulder -19.017229 14.983298 -17.833606
LeftArm 20.609602 1.684791 -72.357706
LeftForeArm 4.371780 -0.000000 12.033854
LeftHand 1.940621 -0.000000 -6.466114
LeftHandThumb1 -26.253704 0.000000 33.147579
RightShoulder 0.048500 3.821626 4.238234
RightArm -5.736276 54.647988 66.629454
RightForeArm 15.192470 -0.000000 80.933449
RightHand 16.793181 -0.000000 -15.359540
RightHandThumb1 -24.326973 -0.000000 -32.862282
LeftUpLeg 13.331368 16.101274 7.686810
LeftLeg -8.684766 -0.000000 0.000000
LeftFoot -15.687292 27.666098 -8.116269
LeftToeBase 22.973499 -0.000000 -0.000000
RightUpLeg 9.241102 -3.758202 3.917730
RightLeg -4.282951 -0.000000 0.000000
RightFoot -3.631534 -26.504515 3.322088
RightToeBase 13.696873 -0.000000 -0.000000
1949
root -5.283266 35.252711 -10.254597 -3.445159 -7.391520 -5.985905
Spine 0.589878 -0.581553 9.434256
Head 5.993778 2.108102 -8.784140
LeftShoulder -19.037041 14.973171 -17.854983
LeftArm 20.620879 1.687535 -72.346336
LeftForeArm 4.373598 -0.000000 12.037483
LeftHand 1.949903 -0.000000 -6.495333
LeftHandThumb1 -26.253704 0.000000 33.147579
RightShoulder 0.085866 3.805187 4.249773
RightArm -5.793137 54.541594 66.646085
RightForeArm 15.398495 0.000000 78.733561
RightHand 16.784098 -0.000000 -15.300159
RightHandThumb1 -24.326973 -0.000000 -32.862282
LeftUpLeg 13.322508 16.101450 7.679488
LeftLeg -8.695329 -0.000000 0.000000
LeftFoot -15.672820 27.650863 -8.088337
LeftToeBase 22.964478 -0.000000 -0.000000
RightUpLeg 9.274568 -3.671101 3.916997
RightLeg -4.355055 -0.000000 0.000000
RightFoot -3.625283 -26.562024 3.396243
RightToeBase 13.643315 -0.000000 -0.000000
